<svg width="102" height="44" viewBox="0 0 102 44" fill="none" xmlns="http://www.w3.org/2000/svg">
<circle cx="22" cy="22" r="22" fill="#F4DE4D"/>
<path d="M28.1282 35H24.6126L31.0135 16.8182H35.0795L41.4893 35H37.9737L33.1175 20.5469H32.9755L28.1282 35ZM28.2436 27.8711H37.8317V30.5167H28.2436V27.8711ZM54.2135 21.3636L49.3573 35H45.8062L40.95 21.3636H44.3769L47.5107 31.4933H47.6528L50.7955 21.3636H54.2135ZM56.4374 35V21.3636H59.6512V35H56.4374ZM58.0532 19.4283C57.5442 19.4283 57.1062 19.2596 56.7393 18.9222C56.3723 18.579 56.1888 18.1676 56.1888 17.6882C56.1888 17.2029 56.3723 16.7915 56.7393 16.4542C57.1062 16.1109 57.5442 15.9393 58.0532 15.9393C58.5681 15.9393 59.0061 16.1109 59.3671 16.4542C59.734 16.7915 59.9175 17.2029 59.9175 17.6882C59.9175 18.1676 59.734 18.579 59.3671 18.9222C59.0061 19.2596 58.5681 19.4283 58.0532 19.4283ZM69.7653 21.3636V23.8494H61.9261V21.3636H69.7653ZM63.8615 18.0966H67.0753V30.8984C67.0753 31.3305 67.1404 31.6619 67.2706 31.8928C67.4067 32.1177 67.5843 32.2715 67.8033 32.3544C68.0223 32.4373 68.2649 32.4787 68.5312 32.4787C68.7325 32.4787 68.916 32.4639 69.0817 32.4343C69.2533 32.4047 69.3835 32.3781 69.4723 32.3544L70.0138 34.8668C69.8422 34.926 69.5966 34.9911 69.277 35.0621C68.9633 35.1332 68.5786 35.1746 68.1229 35.1864C67.3179 35.2101 66.5929 35.0888 65.9478 34.8224C65.3027 34.5502 64.7907 34.13 64.4119 33.5618C64.0391 32.9936 63.8556 32.2834 63.8615 31.4311V18.0966ZM78.2547 35.2663C76.923 35.2663 75.7689 34.9734 74.7923 34.3874C73.8158 33.8015 73.0582 32.9818 72.5196 31.9283C71.9869 30.8748 71.7206 29.6437 71.7206 28.2351C71.7206 26.8265 71.9869 25.5924 72.5196 24.533C73.0582 23.4736 73.8158 22.6509 74.7923 22.065C75.7689 21.479 76.923 21.1861 78.2547 21.1861C79.5864 21.1861 80.7405 21.479 81.7171 22.065C82.6936 22.6509 83.4482 23.4736 83.9809 24.533C84.5195 25.5924 84.7888 26.8265 84.7888 28.2351C84.7888 29.6437 84.5195 30.8748 83.9809 31.9283C83.4482 32.9818 82.6936 33.8015 81.7171 34.3874C80.7405 34.9734 79.5864 35.2663 78.2547 35.2663ZM78.2725 32.6918C78.9945 32.6918 79.5982 32.4935 80.0835 32.0969C80.5689 31.6945 80.9299 31.1559 81.1666 30.4812C81.4093 29.8065 81.5306 29.0548 81.5306 28.2262C81.5306 27.3917 81.4093 26.6371 81.1666 25.9624C80.9299 25.2817 80.5689 24.7402 80.0835 24.3377C79.5982 23.9353 78.9945 23.734 78.2725 23.734C77.5326 23.734 76.9171 23.9353 76.4259 24.3377C75.9405 24.7402 75.5766 25.2817 75.3339 25.9624C75.0972 26.6371 74.9788 27.3917 74.9788 28.2262C74.9788 29.0548 75.0972 29.8065 75.3339 30.4812C75.5766 31.1559 75.9405 31.6945 76.4259 32.0969C76.9171 32.4935 77.5326 32.6918 78.2725 32.6918ZM91.4494 16.8182L91.1564 29.6555H88.2978L88.0137 16.8182H91.4494ZM89.7271 35.1953C89.1885 35.1953 88.7269 35.0059 88.3422 34.6271C87.9634 34.2483 87.774 33.7867 87.774 33.2422C87.774 32.7095 87.9634 32.2538 88.3422 31.875C88.7269 31.4962 89.1885 31.3068 89.7271 31.3068C90.2538 31.3068 90.7096 31.4962 91.0943 31.875C91.4849 32.2538 91.6802 32.7095 91.6802 33.2422C91.6802 33.6032 91.5885 33.9317 91.405 34.2276C91.2275 34.5236 90.9907 34.7603 90.6948 34.9379C90.4048 35.1095 90.0822 35.1953 89.7271 35.1953Z" fill="black"/>
</svg>
